<svg width="105" height="105" viewBox="0 0 105 105" fill="none" xmlns="http://www.w3.org/2000/svg">
<path d="M83.125 12.125H21.875C17.0425 12.125 13.125 16.0425 13.125 20.875V82.125C13.125 86.9575 17.0425 90.875 21.875 90.875H83.125C87.9575 90.875 91.875 86.9575 91.875 82.125V20.875C91.875 16.0425 87.9575 12.125 83.125 12.125Z" stroke="#6D6875" stroke-width="2" stroke-linecap="round" stroke-linejoin="round"/>
<path d="M37.1875 43.75C40.8119 43.75 43.75 40.8119 43.75 37.1875C43.75 33.5631 40.8119 30.625 37.1875 30.625C33.5631 30.625 30.625 33.5631 30.625 37.1875C30.625 40.8119 33.5631 43.75 37.1875 43.75Z" stroke="#6D6875" stroke-width="2" stroke-linecap="round" stroke-linejoin="round"/>
<path d="M91.875 65.625L70 43.75L21.875 91.875" stroke="#6D6875" stroke-width="2" stroke-linecap="round" stroke-linejoin="round"/>
</svg>
