<svg width="14" height="14" viewBox="0 0 14 14" fill="none" xmlns="http://www.w3.org/2000/svg">
<path d="M12.25 5.66658H13C13.1989 5.66658 13.3897 5.73682 13.5303 5.86185C13.671 5.98687 13.75 6.15644 13.75 6.33325V12.9999C13.75 13.1767 13.671 13.3463 13.5303 13.4713C13.3897 13.5963 13.1989 13.6666 13 13.6666H1C0.801088 13.6666 0.610322 13.5963 0.46967 13.4713C0.329018 13.3463 0.25 13.1767 0.25 12.9999V6.33325C0.25 6.15644 0.329018 5.98687 0.46967 5.86185C0.610322 5.73682 0.801088 5.66658 1 5.66658H1.75V4.99992C1.75 4.38708 1.8858 3.78025 2.14963 3.21406C2.41347 2.64788 2.80018 2.13343 3.28769 1.70009C3.7752 1.26675 4.35395 0.923003 4.99091 0.688481C5.62787 0.453959 6.31056 0.333252 7 0.333252C7.68944 0.333252 8.37213 0.453959 9.00909 0.688481C9.64605 0.923003 10.2248 1.26675 10.7123 1.70009C11.1998 2.13343 11.5865 2.64788 11.8504 3.21406C12.1142 3.78025 12.25 4.38708 12.25 4.99992V5.66658ZM10.75 5.66658V4.99992C10.75 4.11586 10.3549 3.26802 9.65165 2.6429C8.94839 2.01777 7.99456 1.66659 7 1.66659C6.00544 1.66659 5.05161 2.01777 4.34835 2.6429C3.64509 3.26802 3.25 4.11586 3.25 4.99992V5.66658H10.75ZM6.25 8.33325V10.9999H7.75V8.33325H6.25Z" fill="white"/>
</svg>
