<svg width="15" height="15" viewBox="0 0 15 15" fill="none" xmlns="http://www.w3.org/2000/svg">
<g clip-path="url(#clip0_48_1426)">
<path d="M7.5 0.625C7.91038 0.625 8.31674 0.705831 8.69589 0.862876C9.07503 1.01992 9.41953 1.25011 9.70971 1.54029C9.99989 1.83047 10.2301 2.17497 10.3871 2.55411C10.5442 2.93326 10.625 3.33962 10.625 3.75V5H12.5C12.6658 5 12.8247 5.06585 12.9419 5.18306C13.0592 5.30027 13.125 5.45924 13.125 5.625V13.125C13.125 13.2908 13.0592 13.4497 12.9419 13.5669C12.8247 13.6842 12.6658 13.75 12.5 13.75H2.5C2.33424 13.75 2.17527 13.6842 2.05806 13.5669C1.94085 13.4497 1.875 13.2908 1.875 13.125V5.625C1.875 5.45924 1.94085 5.30027 2.05806 5.18306C2.17527 5.06585 2.33424 5 2.5 5H4.375V3.75C4.375 2.9212 4.70424 2.12634 5.29029 1.54029C5.87634 0.95424 6.6712 0.625 7.5 0.625ZM10.625 6.875H9.375V7.5C9.37518 7.6593 9.43617 7.81252 9.54553 7.92836C9.65489 8.04419 9.80435 8.1139 9.96337 8.12323C10.1224 8.13257 10.279 8.08083 10.4011 7.97858C10.5233 7.87634 10.6018 7.73131 10.6206 7.57312L10.625 7.5V6.875ZM5.625 6.875H4.375V7.5C4.37518 7.6593 4.43617 7.81252 4.54553 7.92836C4.65489 8.04419 4.80435 8.1139 4.96337 8.12323C5.1224 8.13257 5.27899 8.08083 5.40115 7.97858C5.5233 7.87634 5.60181 7.73131 5.62063 7.57312L5.625 7.5V6.875ZM7.5 1.875C7.02174 1.87497 6.56155 2.0577 6.21359 2.3858C5.86562 2.7139 5.65618 3.16257 5.62813 3.64L5.625 3.75V5H9.375V3.75C9.37503 3.27174 9.1923 2.81155 8.8642 2.46359C8.5361 2.11562 8.08743 1.90618 7.61 1.87813L7.5 1.875Z" fill="#6D6875"/>
</g>
<defs>
<clipPath id="clip0_48_1426">
<rect width="15" height="15" fill="white"/>
</clipPath>
</defs>
</svg>
