<svg width="17" height="18" viewBox="0 0 17 18" fill="none" xmlns="http://www.w3.org/2000/svg">
<path d="M2.7124 17.75C2.1624 17.75 1.69174 17.5543 1.3004 17.163C0.908402 16.771 0.712402 16.3 0.712402 15.75V6.75C0.712402 6.43333 0.783402 6.13333 0.925402 5.85C1.06674 5.56667 1.2624 5.33333 1.5124 5.15L7.5124 0.65C7.69574 0.516667 7.8874 0.416667 8.0874 0.35C8.2874 0.283333 8.49574 0.25 8.7124 0.25C8.92907 0.25 9.1374 0.283333 9.3374 0.35C9.5374 0.416667 9.72907 0.516667 9.9124 0.65L15.9124 5.15C16.1624 5.33333 16.3584 5.56667 16.5004 5.85C16.6417 6.13333 16.7124 6.43333 16.7124 6.75V15.75C16.7124 16.3 16.5167 16.771 16.1254 17.163C15.7334 17.5543 15.2624 17.75 14.7124 17.75H10.7124V10.75H6.7124V17.75H2.7124Z" fill="#B5838D"/>
</svg>
