<svg width="22" height="18" viewBox="0 0 22 18" fill="none" xmlns="http://www.w3.org/2000/svg">
<path d="M10.5327 2.67945L11.2124 3.30927L11.8921 2.67944C12.8148 1.82442 14.3053 1 15.9374 1C18.5852 1 20.7124 2.99487 20.7124 5.83784C20.7124 8.82608 18.9888 11.2506 16.7888 13.1726C14.8426 14.873 12.6493 16.0728 11.2353 16.8463C11.2277 16.8505 11.22 16.8546 11.2124 16.8588C11.2048 16.8546 11.1971 16.8505 11.1895 16.8463C9.77552 16.0728 7.58219 14.873 5.63597 13.1726C3.43604 11.2506 1.7124 8.82608 1.7124 5.83784C1.7124 2.99933 3.87496 1 6.4874 1C8.1195 1 9.61 1.82442 10.5327 2.67945Z" stroke="#6D6875" stroke-width="2"/>
</svg>
