<svg width="21" height="20" viewBox="0 0 21 20" fill="none" xmlns="http://www.w3.org/2000/svg">
<path d="M4.37951 19.7333C3.32292 19.7334 2.30865 19.3 1.55562 18.5266L1.47257 18.4399C1.09422 18.0547 0.793595 17.5943 0.588409 17.086C0.383224 16.5776 0.277628 16.0315 0.277844 15.4799C0.276507 14.8827 0.38876 14.2912 0.608098 13.7396C0.827436 13.188 1.1495 12.6874 1.55562 12.2666L11.4584 2.04659C12.4646 0.953439 13.842 0.316429 15.2939 0.272785C16.7458 0.229141 18.1561 0.782357 19.2209 1.81326C19.7011 2.31312 20.0812 2.90773 20.339 3.56243C20.5967 4.21713 20.727 4.91881 20.7223 5.62659C20.7166 6.41706 20.5613 7.19857 20.2652 7.92621C19.9692 8.65385 19.5383 9.31327 18.9973 9.86659L10.0976 19.0666C10.0422 19.1442 9.97139 19.2084 9.88991 19.2546C9.80844 19.3008 9.7183 19.328 9.62576 19.3342C9.53323 19.3404 9.4405 19.3255 9.35404 19.2905C9.26757 19.2556 9.18943 19.2014 9.12505 19.1317C9.06066 19.0621 9.01158 18.9787 8.9812 18.8873C8.95082 18.7958 8.93988 18.6986 8.94913 18.6023C8.95838 18.5061 8.98761 18.413 9.03478 18.3297C9.08195 18.2464 9.14593 18.1748 9.22229 18.1199L18.0965 8.91993C18.5179 8.49064 18.8539 7.97873 19.0853 7.41356C19.3166 6.8484 19.4387 6.24112 19.4445 5.62659C19.4491 5.09476 19.3521 4.5673 19.159 4.07508C18.9659 3.58285 18.6807 3.13575 18.3201 2.75993C17.4945 1.97517 16.4067 1.55994 15.2907 1.60358C14.1748 1.64722 13.1198 2.14623 12.3528 2.99326L2.48201 13.2133C2.19113 13.508 1.95941 13.8602 1.80035 14.2494C1.6413 14.6385 1.55811 15.0569 1.55562 15.4799C1.55426 15.8514 1.62358 16.2195 1.75957 16.5628C1.89556 16.9061 2.09552 17.2179 2.34784 17.4799L2.4309 17.5666C3.00255 18.1159 3.75803 18.409 4.53473 18.3828C5.31142 18.3566 6.0472 18.0132 6.58368 17.4266L15.1128 8.62659C15.2741 8.45642 15.4013 8.25438 15.4869 8.03231C15.5724 7.81023 15.6147 7.57258 15.6112 7.33326C15.6126 7.12539 15.5743 6.91931 15.4986 6.72703C15.423 6.53474 15.3114 6.36009 15.1703 6.21326C14.8477 5.90453 14.4216 5.74058 13.9842 5.7568C13.5467 5.77301 13.1328 5.96809 12.832 6.29993L6.95423 12.3799C6.83393 12.5046 6.67109 12.5743 6.50156 12.5736C6.33202 12.573 6.16966 12.5021 6.0502 12.3766C5.93075 12.2511 5.86397 12.0811 5.86457 11.9042C5.86517 11.7273 5.93309 11.5579 6.0534 11.4333L11.9567 5.33326C12.4979 4.75481 13.2352 4.42152 14.0097 4.40531C14.7842 4.3891 15.5338 4.69125 16.0967 5.24659C16.3556 5.52159 16.5591 5.84791 16.6952 6.20629C16.8312 6.56468 16.8971 6.94787 16.889 7.33326C16.8883 7.74827 16.8082 8.15897 16.6536 8.54131C16.4989 8.92365 16.2726 9.26995 15.9881 9.55993L7.48451 18.3866C6.66027 19.2453 5.54423 19.7293 4.37951 19.7333Z" fill="#777777"/>
</svg>
