<svg width="13" height="14" viewBox="0 0 13 14" fill="none" xmlns="http://www.w3.org/2000/svg">
<g clip-path="url(#clip0_39_1786)">
<path d="M6.50004 1.45825C9.49167 1.45825 11.9167 3.88329 11.9167 6.87492C11.9167 9.86654 9.49167 12.2916 6.50004 12.2916C3.50842 12.2916 1.08337 9.86654 1.08337 6.87492H2.16671C2.16671 9.268 4.10696 11.2083 6.50004 11.2083C8.89312 11.2083 10.8334 9.268 10.8334 6.87492C10.8334 4.48184 8.89312 2.54159 6.50004 2.54159C5.01046 2.54159 3.69637 3.29288 2.91692 4.43742H4.33337V5.52075H1.08337V2.27075H2.16671V3.62492C3.15471 2.30867 4.72825 1.45825 6.50004 1.45825ZM7.04171 4.16659V6.65013L8.79833 8.40675L8.03187 9.17321L5.95837 7.09863V4.16659H7.04171Z" fill="#E5989B"/>
</g>
<defs>
<clipPath id="clip0_39_1786">
<rect width="13" height="13" fill="white" transform="translate(0 0.375)"/>
</clipPath>
</defs>
</svg>
