<svg width="17" height="16" viewBox="0 0 17 16" fill="none" xmlns="http://www.w3.org/2000/svg">
<path d="M8.28735 0C9.34822 0 10.3656 0.421427 11.1158 1.17157C11.8659 1.92172 12.2874 2.93913 12.2874 4C12.2874 5.06087 11.8659 6.07828 11.1158 6.82843C10.3656 7.57857 9.34822 8 8.28735 8C7.22649 8 6.20907 7.57857 5.45893 6.82843C4.70878 6.07828 4.28735 5.06087 4.28735 4C4.28735 2.93913 4.70878 1.92172 5.45893 1.17157C6.20907 0.421427 7.22649 0 8.28735 0ZM8.28735 2C7.75692 2 7.24821 2.21071 6.87314 2.58579C6.49807 2.96086 6.28735 3.46957 6.28735 4C6.28735 4.53043 6.49807 5.03914 6.87314 5.41421C7.24821 5.78929 7.75692 6 8.28735 6C8.81779 6 9.32649 5.78929 9.70157 5.41421C10.0766 5.03914 10.2874 4.53043 10.2874 4C10.2874 3.46957 10.0766 2.96086 9.70157 2.58579C9.32649 2.21071 8.81779 2 8.28735 2ZM8.28735 9C10.9574 9 16.2874 10.33 16.2874 13V16H0.287354V13C0.287354 10.33 5.61735 9 8.28735 9ZM8.28735 10.9C5.31735 10.9 2.18735 12.36 2.18735 13V14.1H14.3874V13C14.3874 12.36 11.2574 10.9 8.28735 10.9Z" fill="#6D6875"/>
</svg>
