<svg width="23" height="18" viewBox="0 0 23 18" fill="none" xmlns="http://www.w3.org/2000/svg">
<path d="M7.5374 18H4.7124V6.4L2.8874 2H0.712402V0H4.2374L5.8874 4H22.2874L18.7124 11.025C19.5624 11.1583 20.2751 11.55 20.8504 12.2C21.4251 12.85 21.7124 13.6167 21.7124 14.5C21.7124 15.4667 21.3751 16.2917 20.7004 16.975C20.0251 17.6583 19.2041 18 18.2374 18C17.2541 18 16.4251 17.6583 15.7504 16.975C15.0751 16.2917 14.7374 15.4667 14.7374 14.5C14.7374 14.1667 14.7791 13.8583 14.8624 13.575C14.9457 13.2917 15.0624 13.0167 15.2124 12.75L11.9374 12.45L7.5374 18ZM16.5624 10.875L19.0374 6L6.7124 6.025L8.4374 10.125L16.5624 10.875ZM6.7124 10.7V15.975L9.6874 12.25L7.2624 12.025L6.7124 10.7ZM18.2124 16C18.6457 16 19.0041 15.854 19.2874 15.562C19.5707 15.2707 19.7124 14.9167 19.7124 14.5C19.7124 14.0667 19.5707 13.7083 19.2874 13.425C19.0041 13.1417 18.6457 13 18.2124 13C17.7957 13 17.4417 13.1417 17.1504 13.425C16.8584 13.7083 16.7124 14.0667 16.7124 14.5C16.7124 14.9167 16.8584 15.2707 17.1504 15.562C17.4417 15.854 17.7957 16 18.2124 16ZM16.5624 10.875L8.4374 10.125L16.5624 10.875Z" fill="#6D6875"/>
</svg>
